# xmcd
#
# Track frame offsets:
#	150
#	20747
#	47889
#	76629
#	97748
#	119631
#	141656
#	164911
#	184848
#	212693
#	230190
#	259038
#	281967
#	301980
#
# Disc length: 4133 seconds
#
# Revision: 1
# Processed by: cddbd v1.5.2PL0 Copyright (c) Steve Scherf et al.
# Submitted via: audiograbber 1.83.01
#
DISCID=d510230e
DTITLE=Justin Conn - New Blood
DYEAR=2006
DGENRE=Blues
TTITLE0=Southern Girls
TTITLE1=Trouble
TTITLE2=Late Again
TTITLE3=Jenine
TTITLE4=Alabama Dream
TTITLE5=Fool's Dream
TTITLE6=Close
TTITLE7=6 and ½
TTITLE8=Communion
TTITLE9=Memphis Thing
TTITLE10=Dirty
TTITLE11=Alright Now
TTITLE12=Lay Down, Baby
TTITLE13=New Blood
EXTD=
EXTT0=
EXTT1=
EXTT2=
EXTT3=
EXTT4=
EXTT5=
EXTT6=
EXTT7=
EXTT8=
EXTT9=
EXTT10=
EXTT11=
EXTT12=
EXTT13=
PLAYORDER=
